<?xml version="1.0" encoding="utf-8"?>
<!-- Generator: Adobe Illustrator 16.0.4, SVG Export Plug-In . SVG Version: 6.00 Build 0)  -->
<!DOCTYPE svg PUBLIC "-//W3C//DTD SVG 1.1//EN" "http://www.w3.org/Graphics/SVG/1.1/DTD/svg11.dtd">
<svg version="1.1" id="Layer_1" xmlns="http://www.w3.org/2000/svg" xmlns:xlink="http://www.w3.org/1999/xlink" x="0px" y="0px"
	 width="777.335px" height="418.712px" viewBox="0 0 777.335 418.712" enable-background="new 0 0 777.335 418.712"
	 xml:space="preserve">
<path fill="#231F20" d="M769.682,401.872c-46.979,21.134-99.854-8.038-126.443-47.65c-5.977-8.903-10.882-18.28-14.752-27.962
	c7.762-2.398,15.335-5.371,22.632-9.035c18.052-9.066,33.114-23.361,42.503-41.286c11.998-22.903,15.034-51.037,7.656-75.741
	c-2.61-8.741-5.924-17.373-10.227-25.424c-3.877-7.253-9.759-15.66-18.439-17.192c-18.455-3.256-32.288,14.104-40.852,27.932
	c-24.641,39.79-30.938,89.476-16.454,133.928c-14.292,3.305-29.041,4.724-43.66,5.152c-20.206,0.592-40.72-0.641-60.688-3.799
	c-46.188-7.304-96.012-25.688-124.341-64.977c-1.53-2.122-2.974-4.312-4.361-6.542c31.085-9.951,56.823-30.598,69.789-66.124
	c6.818-18.682,7.461-38.729,4.884-58.262c-2.232-16.919-6.524-37.261-21.394-47.708c-16.555-11.63-38.574,0.542-50.62,12.811
	c-13.852,14.108-24.025,33.676-28.324,52.931c-7.517,33.676-3.681,69.59,11.286,100.07c-11.711,2.38-23.807,3.177-35.848,3.248
	c-25.485,0.151-50.853-3.968-75.167-11.516c-22.335-6.933-43.566-17.229-62.857-30.427c10.62-10.781,17.314-25.069,21.718-39.37
	c10.215-33.172,8.949-71.333-2.475-104.012c-5.402-15.454-13.599-30.18-25.396-41.667C176.589,8.28,160.253-0.424,144.188,0.016
	c-20.699,0.567-33.979,19.683-40.76,37.113c-8.816,22.662-5.848,47.265,2.145,69.722c9.203,25.856,24.944,49.158,42.659,69.917
	c8.905,10.435,18.974,19.844,29.828,28.251c-13.051,9.767-29.111,15.457-44.875,18.832c-20.446,4.376-42.137,4.494-62.673,0.666
	c-10.087-1.881-20.194-4.765-29.29-9.566c-12.054-6.363-22.681-15.109-32.595-24.377c-4.705-4.398-11.791,2.658-7.071,7.07
	c10.566,9.878,21.903,18.971,34.619,25.941c9.774,5.358,20.793,8.443,31.679,10.574c22.825,4.469,46.651,3.901,69.357-0.959
	c17.523-3.751,35.006-10.804,49.141-22.054c6.579,4.629,13.395,8.915,20.381,12.852c44.679,25.177,111.852,41.167,165.956,27.957
	c7.385,12.597,16.82,24.048,28.291,33.745c35.662,30.147,83.726,43.269,129.401,47.451c28.926,2.649,59.68,2.805,88.356-4.193
	c12.144,30.555,33.34,56.94,61.765,73.856c28.692,17.075,63.38,21.569,94.228,7.692
	C780.602,407.865,775.512,399.249,769.682,401.872z M135.583,143.604c-15.354-23.116-27.688-50.005-27.679-78.228
	c0.006-18.302,8.199-41.093,24.145-51.373c14.101-9.091,32.92-0.876,44.633,8.66c12.331,10.04,20.699,24.258,26.227,38.985
	c12.055,32.12,12.925,69.817,2.587,102.499c-3.976,12.57-10.184,24.766-19.597,34.134c-0.039,0.038-0.08,0.074-0.119,0.112
	C165.891,183.331,149.357,164.343,135.583,143.604z M379.664,113.3c9.073-15.06,26.275-34.986,46.258-29.692
	c7.524,1.994,12.117,10.059,14.856,16.73c3.464,8.437,5.29,17.635,6.422,26.652c2.477,19.738,1.184,39.766-6.637,58.263
	c-8.271,19.566-22.958,35.598-41.278,46.2c-6.995,4.048-14.346,7.02-21.914,9.209C357.335,201.681,357.193,150.599,379.664,113.3z
	 M631.732,206.954c6.509-14.279,16.774-35.621,33.676-39.523c8.616-1.99,13.4,5.886,17.009,12.39
	c4.239,7.641,7.169,16.038,9.623,24.401c7.318,24.94,2.114,53.663-12.131,75.297c-11.013,16.725-28.48,27.981-47.021,34.75
	c-2.576,0.94-5.18,1.798-7.801,2.586C613.527,281.165,615.727,242.064,631.732,206.954z"/>
</svg>
