<?xml version="1.0" encoding="utf-8"?>
<!-- Generator: Adobe Illustrator 16.0.4, SVG Export Plug-In . SVG Version: 6.00 Build 0)  -->
<!DOCTYPE svg PUBLIC "-//W3C//DTD SVG 1.1//EN" "http://www.w3.org/Graphics/SVG/1.1/DTD/svg11.dtd">
<svg version="1.1" id="Layer_1" xmlns="http://www.w3.org/2000/svg" xmlns:xlink="http://www.w3.org/1999/xlink" x="0px" y="0px"
	 width="424.541px" height="277.834px" viewBox="0 0 424.541 277.834" enable-background="new 0 0 424.541 277.834"
	 xml:space="preserve">
<g>
	<g>
		<path class="blob" fill="" d="M20.288,146.109C12.856,124.449,1.694,100.792,6.1,77.351c4.889-26.011,33.577-40.608,58.015-40.472
			c13.053,0.072,25.823,4.268,37.065,10.713c11.358,6.512,16.977,17.011,22.361,28.439c4.959,10.525,10.526,20.229,19.72,27.608
			c8.386,6.73,18.622,10.833,29.125,12.812c21.46,4.043,44.1-1.867,59.384-17.72c15.815-16.404,23.114-39.164,36.636-57.286
			c14.737-19.75,35.747-33.684,60.543-36.232c27.264-2.801,51.43,15.668,66.466,36.767c10.215,14.332,16.106,31.282,19.906,48.333
			c4.013,18.002,5.317,36.744,3.34,55.095c-1.841,17.085-7.296,34.577-18.727,47.728c-13.972,16.075-35.765,21.402-56.371,19.424
			c-26.661-2.561-50.279-18.158-74.31-28.617c-20.182-8.784-45.334-13.652-64.624-0.088c-9.991,7.026-15.604,18.099-17.043,30.056
			c-1.478,12.276,0.739,25.245-5.672,36.402c-5.545,9.647-16.53,14.934-26.445,18.886c-10.502,4.187-22.288,4.727-33.33,2.768
			c-16.961-3.009-32.337-12.542-43.314-25.684c-5.505-6.589-9.952-14.681-12.106-23.006c-1.993-7.705-2.364-15.827-3.227-23.71
			c-1.538-14.048-3.811-31.039-16.152-39.99c-4.321-3.134-10.592-3.139-15.672-3.624c-6.961-0.665-11.197-2.722-10.037-10.523
			c0.469-3.153-4.349-4.51-4.821-1.33c-1.099,7.388,0.649,13.544,8.318,15.82c7.276,2.159,15.575,0.061,21.591,5.599
			c8.018,7.381,9.967,19.846,11.305,30.096c1.305,9.997,1.605,20.223,4.14,30.021c5.318,20.561,22.983,37.391,41.832,45.871
			c19.975,8.987,41.429,8.198,61.068-1.05c8.816-4.151,16.831-10.071,21.748-18.629c5.824-10.135,4.583-22.027,5.307-33.226
			c0.95-14.708,7.612-27.182,20.987-34.019c11.042-5.645,24.46-4.858,36.186-2.213c12.691,2.863,24.452,8.938,36.078,14.588
			c11.479,5.579,22.957,11.188,35.038,15.364c21.535,7.443,45.961,8.272,66.536-2.53c31.387-16.479,38.773-56.319,37.455-88.565
			c-1.527-37.364-13.659-76.276-42.414-101.588c-9.087-7.999-19.761-14.163-31.415-17.501c-11.562-3.312-23.665-2.447-35.217,0.402
			c-22.107,5.452-39.8,20.65-52.961,38.685c-13.567,18.591-20.686,41.901-37.978,57.696c-17.622,16.096-45.744,17.282-66.755,7.735
			c-11.18-5.08-19.385-13.498-25.294-24.127c-5.492-9.878-9.099-20.587-16.454-29.352c-7.674-9.145-19.661-14.565-30.836-18.02
			c-11.187-3.458-23.082-4.068-34.601-2.167C28.123,36.675,6.206,53.267,1.278,76.021c-4.842,22.356,5.114,45.752,12.445,66.414
			c0.591,1.665,1.17,3.333,1.743,5.005C16.507,150.47,21.337,149.168,20.288,146.109L20.288,146.109z"/>
	</g>
</g>
</svg>
